<!DOCTYPE svg PUBLIC "-//W3C//DTD SVG 1.1//EN" "http://www.w3.org/Graphics/SVG/1.1/DTD/svg11.dtd">
<!-- Uploaded to: SVG Repo, www.svgrepo.com, Transformed by: SVG Repo Mixer Tools -->
<svg width="211px" height="211px" viewBox="0 0 377.76 377.76" xmlns="http://www.w3.org/2000/svg" fill="#000000" stroke="#000000" stroke-width="0.37776299999999996">
<g id="SVGRepo_bgCarrier" stroke-width="0"/>
<g id="SVGRepo_tracerCarrier" stroke-linecap="round" stroke-linejoin="round"/>
<g id="SVGRepo_iconCarrier">
<defs>
<style>.a{fill:#ffffff;}.b{fill:#50ce52;}.c{fill:#f4b467;}.d{fill:#f7cb95;}.e{fill:#78d98b;}.f{fill:#c6a38b;}.g{fill:#645d5c;}.h{fill:#211715;}.i{fill:#cfcfcf;}</style>
</defs>
<path class="a" d="M1.575,4.686c.08,23.174.089,198.753.089,212.2,31.262,0,362.82.427,373.675.427V1.932"/>
<path class="b" d="M168.5,232.922l-.755-15.842-9.527-.011c-19.66-.03-39.09-.05-57.43-.07L93.9,216.99c-1.141,13.687-2.582,31.475-2.439,32.309-.37,4.76-.98,12.77-1.7,22.46h56.22c8.14.01,16.41.01,24.74.01-.85-10.54-1.44-19.18-1.51-23.98Z"/>
<path class="c" d="M112.33,236.567c-3.786-5.932-8.228-13.253-11.541-19.568-8.49-.01-16.75-.02-24.68-.04,4.47,14.84,14.05,30.23,23.46,41.55,5.33-4.89,13.48-10.97,17.33-14.97C115.62,241.646,114.042,239.248,112.33,236.567Z"/>
<path class="c" d="M141.86,243.005c4.444-6.436,11.53-17.193,16.359-25.936l25.14.03c-4.56,15.82-17.67,33.18-23.65,42.15-5.86-4.33-14.37-11-19.26-14.22C140.88,244.417,141.353,243.739,141.86,243.005Z"/>
<path class="a" d="M159.227,83.683a4.286,4.286,0,0,1,3.43-1,4.046,4.046,0,0,1,2.911,1.935,5.718,5.718,0,0,1,.6,2.3,17.145,17.145,0,0,1-1.749,9.091,10.888,10.888,0,0,1-2.818,3.7,7.22,7.22,0,0,1-3.361,1.515s-.209.032-.576.092c-.276,1.031-.585,1.9-.737,2.361-1.017,2.76-6.894,12.583-14.169,15.569a38.757,38.757,0,0,0,.606,6.23c.345,1.968.237,3.726,2.972,4.714.181.065,3.258,1.265,3.535,1.379,0,0-1.121,19.455-22.158,19.455s-19.852-18.371-19.852-18.371c.526-.179,6.4-2.4,6.585-2.463,2.735-.988,2.627-2.746,2.972-4.714a38.361,38.361,0,0,0,.605-6.331,24.855,24.855,0,0,1-8.685-6.9,29.15,29.15,0,0,1-5.558-10.85l-1.1-.169a7.211,7.211,0,0,1-3.361-1.515,10.9,10.9,0,0,1-2.819-3.7,17.154,17.154,0,0,1-1.748-9.091,5.7,5.7,0,0,1,.6-2.3,4.042,4.042,0,0,1,2.91-1.935,4.285,4.285,0,0,1,3.43,1s-.945-26.291,28.388-26.291S159.227,83.683,159.227,83.683Z"/>
<path class="d" d="M77.848,157.632c-.41,1.923-.714,3.877-1.009,5.807-2.51,16.47-4.37,30.5-3.09,42.24,7.18.01,14.63.02,22.29.02,21.25.03,44.12.05,67.21.08l22.03.03c.92-11.9-.47-27.06-2.81-42.37-.81-5.3-1.69-10.79-4.64-15.28-2.75-4.18-7.06-7.09-11.44-9.52q-.645-.36-1.29-.69a90.506,90.506,0,0,0-10.752-4.9c-14.589,9.212-35.526,7.52-47.772-.59A91.456,91.456,0,0,0,93.739,138.2c-.28.14-.55.29-.82.44-4.38,2.43-8.69,5.34-11.44,9.52A27.4,27.4,0,0,0,77.848,157.632Z"/>
<path class="e" d="M93.705,143.4c.033,5.511.274,11.187.4,17.677.16,12.58.62,34.27,1.85,44.15.02.146.049.3.078.459,4.5.007,9.1.011,13.78.011,17.013.024,35.065.041,53.436.063.038-.186.067-.369.1-.533,1.24-9.88,1.25-30.24,1.39-44.149.088-6.872.54-15.668.371-22.865a2.118,2.118,0,0,0-1.662-2.387c-4.415-1.924-6.861-4.135-11.4-5.827-.2,5.493-3.043,19.443-3.5,20.107-11.23.969-37.514,1.026-38.226,0-.46-.664-3.4-13.9-3.6-19.391-4.543,1.693-6.889,3.187-11.3,5.111a2.118,2.118,0,0,0-1.662,2.387C93.7,139.941,93.694,141.663,93.705,143.4Z"/>
<path class="f" d="M110.718,124.52a14.686,14.686,0,0,0,7.2-5.423,24.93,24.93,0,0,1-8.583-6.856,29.15,29.15,0,0,1-5.558-10.85l-1.1-.169a7.211,7.211,0,0,1-3.361-1.515c-.17-.137-.333-.28-.491-.429a14.419,14.419,0,0,0-1.619,5.139,23.481,23.481,0,0,0-.16,3.25c.04,2.58.69,5.22.82,7.8s-.95,5.53-3.4,6.36C93.357,123.624,102.686,127.374,110.718,124.52Z"/>
<path class="g" d="M97.105,98.268a18.01,18.01,0,0,0-2,7.3,44.955,44.955,0,0,0,.628,8.268c.2,1.809.356,3.893-.895,5.393-.608.728-1.634.8-2.123,1.651a2.633,2.633,0,0,0-.238,1.969c.582,2.191,3.475,3.218,5.382,3.789a22.688,22.688,0,0,0,9.3.741,17.769,17.769,0,0,0,11.381-5.832c1.673-1.941-1.144-4.783-2.829-2.829-3.278,3.8-8.051,5.141-12.9,4.785a19.137,19.137,0,0,1-5.186-1.17c.234.1-.3-.14-.347-.165-.154-.075-.306-.154-.454-.239-.253-.145-.81-.561-.417-.246-.057-.046-.243-.171-.257-.244-.061-.3.281.422.084.1a1.463,1.463,0,0,1-.03,1.3L95,123.756c4.228-1.606,5.189-6.063,4.7-10.13-.538-4.506-1.381-9.127.852-13.339,1.2-2.273-2.246-4.3-3.454-2.019Z"/>
<path class="f" d="M163.23,62.3c-3.38-14.1-17.822-25.139-32.952-24.315-15.441-.841-30.165,10.677-33.146,25.187A40.955,40.955,0,0,0,97.155,76.9l1.239,5.786a4.431,4.431,0,0,1,2.914.689c5.567-4.412,16.812-11.343,22.2-15.823-.441,2.646-2.007,7.145-.034,6.682,8.243-1.845,16.143-5.568,20.9-11.387a55.007,55.007,0,0,0,3.9,10.1c1.778,2.943,6.951,9.761,11.469,10.355a4.411,4.411,0,0,1,2.912-.6,3.461,3.461,0,0,1,.527.116c2.425-5.554,1.205-14.96.24-19.649C163.364,62.878,163.3,62.588,163.23,62.3Z"/>
<path class="g" d="M99.083,76.372a34.091,34.091,0,0,1-.268-11.155,25.889,25.889,0,0,1,3.66-10.181,31.815,31.815,0,0,1,17.738-13.8,38.865,38.865,0,0,1,11.69-1.3,29.477,29.477,0,0,1,11.206,2.281,31.73,31.73,0,0,1,16.372,15.412,34.447,34.447,0,0,1,2.833,11.336c.455,4.357.677,9.122-1.029,13.251a2.013,2.013,0,0,0,1.4,2.461,2.052,2.052,0,0,0,2.461-1.4c1.648-3.989,1.639-8.643,1.3-12.878a44.387,44.387,0,0,0-2.233-11.762A35.34,35.34,0,0,0,134.949,36.1a58.811,58.811,0,0,0-6.477-.158,33.044,33.044,0,0,0-6.568.728,35.972,35.972,0,0,0-21.237,13.885A30.556,30.556,0,0,0,95.091,63.23a37.52,37.52,0,0,0,.135,14.205c.563,2.511,4.42,1.449,3.857-1.063Z"/>
<path class="g" d="M142.579,63.818c1.347,4.441,2.872,8.88,5.664,12.632,2.614,3.514,6.108,7.717,10.6,8.72,2.507.56,3.578-3.3,1.063-3.857-3.454-.772-6.442-4.437-8.5-7.271-2.451-3.382-3.772-7.32-4.975-11.288-.745-2.456-4.607-1.409-3.857,1.064Z"/>
<path class="g" d="M143.054,61.355a30.682,30.682,0,0,1-12.746,8.737q-1.935.748-3.929,1.331-1,.294-2.014.548c-.331.083-.7.135-1.015.246l-.408.093a1.389,1.389,0,0,1,1.506.746c.2-.06-.15.672.053.026a3.568,3.568,0,0,0,.036-.614c.045-.407.14-.813.224-1.214.221-1.056.488-2.1.676-3.166a2.019,2.019,0,0,0-3.343-1.946C115.113,71.908,107.1,76.31,99.979,81.9a2.01,2.01,0,0,0,0,2.828,2.05,2.05,0,0,0,2.828,0c7.123-5.589,15.127-9.985,22.115-15.756l-3.342-1.946c-.4,2.244-1.639,5.076-.9,7.345a2.736,2.736,0,0,0,3.323,1.8,39.975,39.975,0,0,0,5.026-1.382c6.332-2.084,12.545-5.395,16.85-10.6,1.629-1.969-1.186-4.814-2.828-2.828Z"/>
<path class="g" d="M160.641,85.1a2.212,2.212,0,0,1,3.13.413,4.724,4.724,0,0,1,.452,2.406,14.329,14.329,0,0,1-.2,2.954c-.64,3.509-2.412,7.724-6.315,8.424a2.017,2.017,0,0,0-1.4,2.46,2.045,2.045,0,0,0,2.461,1.4c6.054-1.086,8.944-7.916,9.4-13.4.236-2.839-.01-6.055-2.463-7.89a6.321,6.321,0,0,0-7.894.411,2.015,2.015,0,0,0,0,2.828,2.043,2.043,0,0,0,2.828,0Z"/>
<path class="g" d="M156.2,98.031a16.1,16.1,0,0,1-.939,4.338c-.063.192-.491,1.318-.223.709-.135.306-.276.608-.426.906a36.8,36.8,0,0,1-3.169,5.094c-2.746,3.765-6.476,7.758-11.177,8.861-2.506.587-1.445,4.445,1.063,3.857,5.674-1.331,10.074-5.968,13.412-10.488,2.881-3.9,5.258-8.321,5.459-13.277.1-2.574-3.9-2.57-4,0Z"/>
<path class="g" d="M103.109,82.269a6.323,6.323,0,0,0-7.894-.411c-2.455,1.829-2.7,5.056-2.464,7.89.456,5.487,3.346,12.317,9.4,13.4a2.057,2.057,0,0,0,2.46-1.4,2.017,2.017,0,0,0-1.4-2.46c-3.9-.7-5.675-4.915-6.316-8.424a14.3,14.3,0,0,1-.2-2.788,5.5,5.5,0,0,1,.385-2.458,2.2,2.2,0,0,1,3.2-.527,2.055,2.055,0,0,0,2.829,0,2.016,2.016,0,0,0,0-2.828Z"/>
<path class="g" d="M100.927,97.808a33.426,33.426,0,0,0,7.126,16c4.015,4.753,9.33,8.176,15.587,8.852a2.013,2.013,0,0,0,2-2,2.045,2.045,0,0,0-2-2c-5.305-.573-9.731-3.987-13.021-8-3.253-3.964-4.964-8.93-5.835-13.922a2.018,2.018,0,0,0-2.46-1.4,2.045,2.045,0,0,0-1.4,2.461Z"/>
<path class="g" d="M153.333,131.327c-10.865,6.778-24.978,7.548-36.992,3.594a37.1,37.1,0,0,1-8.753-4.184c-2.159-1.415-4.166,2.047-2.019,3.454,11.125,7.284,26.183,8.857,38.866,5.347a41.625,41.625,0,0,0,10.917-4.757c2.179-1.36.173-4.822-2.019-3.454Z"/>
<path class="g" d="M116.023,119.36a42.338,42.338,0,0,1-.584,5.884,17.212,17.212,0,0,1-.317,1.777c-.035.131-.094.261-.122.393-.045.2.063-.147.072-.163-.035.058-.057.124-.092.183s-.273.427-.11.2-.174.164-.24.232c-.234.239.2-.09-.122.081-.164.088-.322.186-.49.267.216-.1-.109.041-.2.078l-.907.34q-1.535.577-3.071,1.155c-.834.313-1.665.64-2.507.931a2.049,2.049,0,0,0-1.4,2.46,2.019,2.019,0,0,0,2.46,1.4c1.892-.654,3.755-1.4,5.628-2.1a11.159,11.159,0,0,0,3.193-1.574,6.037,6.037,0,0,0,1.995-4,57.983,57.983,0,0,0,.816-7.537,2,2,0,1,0-4,0Z"/>
<path class="g" d="M140.757,119.36a50.016,50.016,0,0,0,.724,6.926,7.624,7.624,0,0,0,1.53,4.092,8.384,8.384,0,0,0,3.552,2.032c.926.359,1.856.712,2.776,1.086a2.007,2.007,0,0,0,2.46-1.4,2.061,2.061,0,0,0-1.4-2.46c-.813-.331-1.635-.643-2.453-.961-.345-.135-.69-.27-1.036-.4-.079-.03-.159-.057-.237-.089.337.14-.2-.116-.267-.153-.113-.065-.536-.421-.175-.09-.1-.095-.2-.2-.305-.293-.3-.285.181.338-.01-.014-.06-.111-.124-.223-.186-.333-.185-.33.108.422-.008-.052-.035-.145-.084-.287-.118-.432-.133-.572-.2-1.158-.292-1.737a39.435,39.435,0,0,1-.558-5.723,2,2,0,0,0-4,0Z"/>
<path class="a" d="M154.71,165.5c-1.1,0-19.214.194-20.889.194,0,1.859.211,9.226.211,10.952,6.6.035,18,.141,20.679.126C154.8,174.25,154.724,166.566,154.71,165.5Z"/>
<path class="g" d="M154.71,163.5c-5.907.007-11.816.116-17.723.169-1.056.01-2.111.024-3.166.025a2.028,2.028,0,0,0-2,2c.007,3.651.2,7.3.211,10.952a2.03,2.03,0,0,0,2,2c6.892.037,13.786.159,20.679.126a2.037,2.037,0,0,0,2-2c.125-3.752.046-7.518,0-11.272-.032-2.572-4.032-2.579-4,0,.047,3.754.126,7.52,0,11.272l2-2c-6.893.033-13.787-.089-20.679-.126l2,2c-.008-3.651-.2-7.3-.211-10.952l-2,2c6.006,0,12.013-.112,18.019-.169.956-.01,1.913-.023,2.87-.025C157.284,167.5,157.288,163.5,154.71,163.5Z"/>
<path class="h" d="M89.459,249.3q-.871,11.227-1.7,22.46c-.19,2.567,3.81,2.555,4,0q.836-11.232,1.7-22.46c.2-2.567-3.8-2.554-4,0Z"/>
<path class="h" d="M172.719,271.769c-.641-7.972-1.382-15.979-1.51-23.98-.041-2.572-4.041-2.58-4,0,.128,8,.869,16.008,1.51,23.98.206,2.548,4.207,2.57,4,0Z"/>
<path class="a" d="M155.508,259.82q-1.05,1.658-2.257,3.218a81.731,81.731,0,0,1-5.683,7.065c-3.821,4.064-8.189,8.076-9.837,9.448a18.848,18.848,0,0,1-3.709,2.377c-1.852.865-4.532-1.011-4.195-1.942-.784.873-4.134,1.4-5.778.556-2.083-1.07-1.016-3.7-1-3.778-1.345.788-2.9-.063-3.889-.778s-1.759-2.19-.667-4.889c.432-1.066,3.767-3.706,4.338-4.33.776-.849,2.368-2.438,4.143-4.151l-1.817-3.1a6.051,6.051,0,0,1,1.756-5.185c1.37-1.5,4.219-4.041,6.167-4.592a69.243,69.243,0,0,0,8.811-2.63l1.306-.756,14,10.889Z"/>
<path class="a" d="M115.79,246.505a19.014,19.014,0,0,0,6.228,2.329c2.723.7,4.982,1.1,6.216,3.449,0,0,2.23,3.386-.3,10.222-5.037,13.629-13.356,8.459-13.356,8.459-2.465-1.541-4.2-3.867-5.883-6.139a55.586,55.586,0,0,1-4.972-7.544"/>
<path class="h" d="M141.359,245.184a46.577,46.577,0,0,1-6.549,2.027,15.059,15.059,0,0,0-5.553,2.372c-3.4,2.524-6.83,5.85-6.029,10.468a2.018,2.018,0,0,0,2.461,1.4,2.045,2.045,0,0,0,1.4-2.46c-.239-1.38.67-2.651,1.558-3.575a20.483,20.483,0,0,1,3.417-2.927,10.8,10.8,0,0,1,.96-.572c.042-.022.509-.235.31-.155s.24-.074.282-.087c.981-.3,1.99-.534,2.985-.79a41.3,41.3,0,0,0,5.826-1.84,2.07,2.07,0,0,0,1.4-2.461,2.014,2.014,0,0,0-2.461-1.4Z"/>
<path class="h" d="M147.394,273.173a73.09,73.09,0,0,0,5.631-6.523c1.447-1.9,2.929-3.8,4.211-5.822a2.017,2.017,0,0,0-.717-2.736,2.044,2.044,0,0,0-2.737.717c-1.249,1.969-2.691,3.814-4.1,5.672l-.23.3c-.025.034-.32.415-.2.263.1-.125-.132.167-.153.194q-.159.2-.32.4-.609.762-1.243,1.5c-.949,1.1-1.962,2.151-2.973,3.2a2,2,0,1,0,2.829,2.829Z"/>
<path class="h" d="M120.178,272.29c.048-.145.1-.29.153-.433q-.146.3-.037.1c.082-.131.392-.462.016-.056.275-.3.538-.6.827-.884.614-.6,1.26-1.172,1.906-1.741.975-.857,1.849-1.789,2.764-2.708,2.775-2.787,5.621-5.527,8.587-8.111a2,2,0,0,0-2.829-2.829c-3.046,2.654-5.972,5.469-8.813,8.34-.956.966-1.89,1.906-2.908,2.807-.68.6-1.363,1.209-1.985,1.873a6.67,6.67,0,0,0-1.538,2.583,2,2,0,1,0,3.857,1.063Z"/>
<path class="h" d="M114.78,248.232a26.08,26.08,0,0,0,6.983,2.6c.557.141,1.116.277,1.67.433.272.076.544.157.813.248.13.044.258.092.387.139.1.037.421.213.042.013.231.122.468.227.693.363.088.054.173.112.259.168.409.26-.266-.271.084.068.171.165.327.347.5.511.145.14-.139-.253.034.062.084.153.182.3.266.454a2.018,2.018,0,0,0,2.737.717,2.042,2.042,0,0,0,.717-2.736c-1.349-2.476-3.819-3.456-6.414-4.115-1.238-.315-2.49-.6-3.711-.979-.253-.079-.5-.162-.751-.253-.124-.045-.246-.1-.371-.142-.222-.072.3.141-.049-.022-.639-.3-1.257-.628-1.866-.984a2,2,0,0,0-2.019,3.454Z"/>
<path class="h" d="M102,258.586a58.981,58.981,0,0,0,5.238,7.9,24.78,24.78,0,0,0,6.335,6.5,2,2,0,1,0,2.019-3.453,21.17,21.17,0,0,1-5.166-5.422,56.776,56.776,0,0,1-4.972-7.545A2,2,0,0,0,102,258.586Z"/>
<path class="h" d="M156.492,216.059a310.124,310.124,0,0,1-17.77,27.96,2.033,2.033,0,0,0,.718,2.737c6.652,4.4,12.852,9.478,19.26,14.22a2.03,2.03,0,0,0,2.736-.718c6.913-10.35,14.3-20.4,19.621-31.708a75.371,75.371,0,0,0,4.231-10.92c.723-2.476-3.136-3.533-3.857-1.063-3.68,12.6-11.246,23.87-18.6,34.589-1.619,2.36-3.26,4.7-4.85,7.083l2.737-.717c-6.408-4.742-12.608-9.818-19.26-14.22l.717,2.736a310.124,310.124,0,0,0,17.77-27.96c1.249-2.254-2.2-4.273-3.454-2.019Z"/>
<path class="g" d="M151.348,134.077a87.2,87.2,0,0,1,15.975,7.407c4.463,2.672,8.466,6.028,10.513,10.937,2.146,5.147,2.664,11.006,3.425,16.479.849,6.1,1.526,12.238,1.932,18.389a131.429,131.429,0,0,1,.086,18.52c-.192,2.567,3.809,2.555,4,0,.912-12.16-.333-24.453-1.959-36.5-.789-5.841-1.336-12.023-3.472-17.561-2.076-5.381-5.84-9.368-10.6-12.522a84.981,84.981,0,0,0-18.837-9.007c-2.434-.852-3.481,3.011-1.063,3.857Z"/>
<path class="g" d="M75.749,205.679c-1.134-10.682.143-21.533,1.611-32.118.827-5.962,1.418-12.133,3.037-17.944a21.733,21.733,0,0,1,3.388-7.278,23.935,23.935,0,0,1,5.618-5.2,77.644,77.644,0,0,1,17.948-8.842c2.406-.862,1.368-4.728-1.063-3.857a89.018,89.018,0,0,0-17.194,8.123c-4.914,3.075-9.059,6.981-11.317,12.407-2.383,5.723-2.924,12.155-3.807,18.237-.886,6.107-1.707,12.232-2.2,18.385a97.314,97.314,0,0,0-.018,18.087,2.059,2.059,0,0,0,2,2,2.014,2.014,0,0,0,2-2Z"/>
<path class="h" d="M99.062,218.008a284.55,284.55,0,0,0,16.11,26.54l.313-2.424c-5.315,5.471-11.7,9.832-17.33,14.97h2.829c-9.889-11.933-18.414-25.77-22.946-40.667-.747-2.456-4.609-1.409-3.857,1.063,4.742,15.588,13.631,29.952,23.974,42.433a2.029,2.029,0,0,0,2.829,0c5.626-5.138,12.014-9.5,17.33-14.97a2.031,2.031,0,0,0,.312-2.424,284.419,284.419,0,0,1-16.11-26.54c-1.2-2.279-4.653-.259-3.454,2.019Z"/>
<path class="g" d="M165.178,206.31a71.986,71.986,0,0,0,.861-9.6c.2-3.817.318-7.639.405-11.46.182-8.057.215-16.117.3-24.175.024-2.39-3.151-2.538-3.928-.532h0l3.929.532c.1-7.07.478-14.137.4-21.21-.018-1.64.129-3.485-1.112-4.757-1.108-1.136-2.93-1.61-4.305-2.35a78.821,78.821,0,0,0-9.145-4.691A2.018,2.018,0,0,0,150.044,130a80.7,80.7,0,0,1-1.583,11.333c-.336,1.8-.691,3.595-1.089,5.382-.139.624-.279,1.248-.442,1.866-.051.193-.115.385-.161.58-.087.366-.2.347.044-.063l1.727-.991c-8.88.756-17.859.819-26.766.733-3.3-.032-6.624-.065-9.916-.381-.122-.011-.243-.028-.365-.043.6.075.335.052.212.026a3.4,3.4,0,0,0-.5-.1c-.41-.026.174.088.183.094.082.054.654.644.611.589.349.447.137.412.071.116-.318-1.411-.735-2.8-1.048-4.219a82.394,82.394,0,0,1-2.315-14.208,2.019,2.019,0,0,0-2.532-1.929c-3.08,1.162-6.009,2.613-8.975,4.028-1.409.672-3.263,1.156-4.376,2.3-1.242,1.274-1.092,3.12-1.113,4.762-.091,7.07.25,14.138.4,21.205l2.531-1.929h-.006a2.025,2.025,0,0,0-2.532,1.929c.157,12.186.362,24.4,1.173,36.559a84.928,84.928,0,0,0,.829,8.592,2.015,2.015,0,0,0,2.46,1.4,2.046,2.046,0,0,0,1.4-2.46c-.868-5.1-.9-10.457-1.123-15.613-.279-6.333-.452-12.671-.58-19.008q-.1-4.734-.156-9.467l-2.531,1.928.006,0a2.025,2.025,0,0,0,2.532-1.929c-.136-6.375-.421-12.749-.415-19.126q0-1.04.014-2.079a12.019,12.019,0,0,1-.007-1.982,9.928,9.928,0,0,1,1.564-.718q.981-.44,1.951-.905c2.653-1.266,5.265-2.586,8.019-3.624l-2.531-1.929a90.462,90.462,0,0,0,3.115,18.07c.405,1.6.752,3.019,2.543,3.465a27.96,27.96,0,0,0,5.612.465c6.425.238,12.869.171,19.3.017,3.233-.077,6.465-.188,9.694-.375a20.775,20.775,0,0,0,4.1-.322c1.185-.326,1.486-1.5,1.752-2.534.766-2.984,1.316-6.035,1.849-9.068A79.948,79.948,0,0,0,154.044,130l-2.532,1.928a63.905,63.905,0,0,1,7.832,4.093c.678.372,1.365.729,2.064,1.062.413.2,1.516.463,1.79.857-.22-.316-.087.352-.084.479.011.413.016.827.021,1.241q.015,1.172.012,2.342c-.01,6.361-.321,12.717-.408,19.077-.033,2.392,3.153,2.534,3.928.532v0l-3.929-.531c-.079,7.927-.112,15.856-.286,23.782-.085,3.839-.2,7.679-.4,11.514a67.659,67.659,0,0,1-.736,8.872c-.479,2.515,3.376,3.593,3.857,1.063Z"/>
<path class="a" d="M278.388,217.748c0,.876,0,6.013.006,9.068l-24.463-.029c.006-3.778.006-8.356.006-8.9"/>
<path class="a" d="M212.488,245.031c0-3.55.034-17.374.034-18.289,9.839,0,93.572.116,107.4.116v15.453"/>
<path class="h" d="M126.712,281q.561-.924,1.194-1.8c.1-.138.2-.275.305-.411.19-.25.017-.033-.07.09.055-.077.118-.15.176-.223q.337-.422.693-.829a26.006,26.006,0,0,1,3.1-3,2.007,2.007,0,0,0,.586-1.414,2.032,2.032,0,0,0-.586-1.414,2.012,2.012,0,0,0-1.414-.586,2.276,2.276,0,0,0-1.414.586,27.583,27.583,0,0,0-6.021,6.985A2,2,0,0,0,126.712,281Z"/>
<path class="h" d="M130.909,287.14a42.625,42.625,0,0,1,5.747-5.714,2.006,2.006,0,0,0,.586-1.414,2.036,2.036,0,0,0-.586-1.414,2.012,2.012,0,0,0-1.414-.586,2.281,2.281,0,0,0-1.415.586,42.676,42.676,0,0,0-5.747,5.713,2.148,2.148,0,0,0-.585,1.414,2,2,0,0,0,2,2,1.959,1.959,0,0,0,1.414-.585Z"/>
<path class="a" d="M219.141,131.974c0,5.975.211,60.283.271,71.472.784-.023,77.067,0,93.773,0,0-9.07-.354-61.29-.354-71.232C312.277,132.214,225.294,131.974,219.141,131.974Z"/>
<path class="a" d="M208.073,269.838V245.075c7.284,0,109.625-.15,116.011-.15,0,9.763.168,17.513.168,23.885"/>
<path class="h" d="M210.073,269.838V245.075l-2,2q6.852,0,13.7-.015l26.9-.035,31.589-.044,27.761-.037q7.71-.01,15.421-.019h.635l-2-2c0,7.962.165,15.923.168,23.885,0,2.574,4,2.578,4,0,0-7.962-.165-15.923-.168-23.885a2.029,2.029,0,0,0-2-2q-6.639,0-13.279.015l-26.684.036-31.576.043-27.954.038q-7.909.011-15.818.018h-.7a2.03,2.03,0,0,0-2,2v24.763c0,2.574,4,2.578,4,0Z"/>
<path class="h" d="M251.725,217.927v8.21a2,2,0,0,0,4,0v-8.21a2,2,0,0,0-4,0Z"/>
<path class="h" d="M276.176,217.788v8.349a2,2,0,0,0,4,0v-8.349a2,2,0,0,0-4,0Z"/>
<path class="h" d="M214.275,245.071c0-6.1.033-12.193.035-18.289l-2,2q18.462,0,36.925.039,26.439.033,52.877.063,8.8.009,17.6.014l-2-2v15.453c0,2.574,4,2.578,4,0V226.9a2.03,2.03,0,0,0-2-2q-19.888,0-39.777-.04l-52.07-.062q-7.778-.009-15.553-.014a2.028,2.028,0,0,0-2,2c0,6.1-.034,12.193-.035,18.289,0,2.574,4,2.578,4,0Z"/>
<path class="g" d="M278.176,204.643H253.725c-2.574,0-2.578,4,0,4h24.451c2.574,0,2.578-4,0-4Z"/>
<path class="g" d="M217.141,131.974c0,7.861.045,15.722.074,23.582q.066,17.635.14,35.27.026,6.309.057,12.62a2.026,2.026,0,0,0,2,2c9.14-.219,18.311-.011,27.453-.01q24.072,0,48.144.007,9.087,0,18.176,0a2.03,2.03,0,0,0,2-2c0-8.415-.072-16.83-.12-25.245q-.1-17.107-.19-34.215c-.02-3.924-.044-7.848-.044-11.772a2.03,2.03,0,0,0-2-2c-2.992,0-5.985-.015-8.977-.023l-21.168-.058-26.11-.069q-11.742-.031-23.484-.06-6.687-.016-13.372-.029h-.579c-2.574,0-2.578,4,0,4q5.808,0,11.618.024l22.522.057,26.192.07,22.283.06,7.337.02a33.4,33.4,0,0,0,3.552.009c.06-.006.125,0,.186,0l-2-2c0,8.623.071,17.245.12,25.868q.094,17.021.19,34.04c.019,3.775.044,7.549.044,11.324l2-2q-19.411,0-38.824-.007-22.478,0-44.954,0c-3.328,0-6.667-.071-10,.009l2,2q-.073-13.651-.118-27.3-.068-17.113-.127-34.228c-.011-3.314-.026-6.628-.026-9.942C221.14,129.4,217.14,129.4,217.141,131.974Z"/>
<path class="g" d="M227.618,142.562c0,13.874.08,27.748.131,41.621q.016,4.338.036,8.675a2.026,2.026,0,0,0,2,2c7.41-.189,14.842-.064,22.253-.088q18.849-.061,37.7-.109,6.486-.017,12.971-.024a2.028,2.028,0,0,0,2-2c0-14.16-.125-28.32-.19-42.479-.011-2.483-.027-4.965-.027-7.448a2.03,2.03,0,0,0-2-2q-11.842-.007-23.684-.05-19.326-.04-38.651-.079-5.268-.01-10.537-.019c-2.574,0-2.578,4,0,4q13.071,0,26.142.05l37.968.08q4.382.009,8.762.018l-2-2c0,13.818.131,27.636.19,41.454.012,2.824.027,5.649.027,8.473l2-2c-9.626,0-19.253.039-28.879.066q-17.916.051-35.832.115c-2.735.011-5.476-.03-8.211.04l2,2q-.115-21.64-.15-43.282-.011-3.507-.017-7.014C231.618,139.989,227.618,139.984,227.618,142.562Z"/>
<path class="a" d="M32.894,347.787c0-2.927,0-59.644.012-64.966,39.639.018,282.939.023,311.966.019-.015,1.611-.017,2.7-.017,2.7-.013,5.012-.018,58.132-.013,61.068Z"/>
<path class="h" d="M34.894,347.787q-.018-10.948,0-21.9,0-16.69.007-33.379,0-4.872.007-9.744c.007-2.574-3.993-2.578-4,0-.019,7.792-.009,15.585-.011,23.378q0,16.483,0,32.966,0,4.336,0,8.675c0,2.574,4,2.578,4,0Z"/>
<path class="h" d="M346.859,346.605q-.016-10.263,0-20.527,0-15.666.006-31.331,0-4.6.008-9.21c.006-2.574-3.994-2.578-4,0-.019,7.336-.01,14.672-.012,22.008q0,15.459,0,30.916,0,4.072,0,8.144c0,2.574,4,2.578,4,0Z"/>
<path class="a" d="M28.689,271.75c-.011,4.958-.016,8.16-.021,11.077,4.446.013,317.335.017,320.409.012-.007-2.917,0-6.117.01-11.071C350.986,271.767,33.945,271.763,28.689,271.75Z"/>
<path class="h" d="M26.689,271.75q-.012,5.538-.021,11.077a2.029,2.029,0,0,0,2,2c3.181.008,6.362,0,9.543,0l23.726,0,34.46,0,41.742,0,45.575,0H349.077a2.03,2.03,0,0,0,2-2q-.012-5.535.01-11.071l-2,2h.009c2.577,0,2.573-3.937,0-4-2.807-.069-5.625,0-8.433,0h-144.1l-46.186,0-43.276,0-36.993,0-26.884,0q-6.825,0-13.648,0h-.883c-2.574-.006-2.578,3.994,0,4q4.935.01,9.87,0l23.975,0,34.911,0,42.047,0,45.8,0,46.068,0H336.3c4.065,0,8.226.259,12.285,0,.167-.011.34,0,.508,0v-4h-.009a2.03,2.03,0,0,0-2,2q-.014,5.535-.01,11.071l2-2q-4.59.007-9.181,0H195.059l-45.987,0-43,0-36.561,0-26.672,0q-6.668,0-13.334,0h-.838l2,2q.011-5.539.021-11.077C30.694,269.176,26.694,269.172,26.689,271.75Z"/>
<path class="i" d="M0,4.686Q.048,19.071.039,33.454.059,58.08.064,82.7q.01,28.19.015,56.381,0,24.454.007,48.909,0,13.818,0,27.637v1.251a2.03,2.03,0,0,0,2,2q8.589,0,17.176.011,15.446.015,30.892.032,20.569.021,41.137.046l47.911.056,51.212.061,50.85.062,47.421.058,40.321.049,29.748.035q7.839.009,15.677.017h1.33a2.028,2.028,0,0,0,2-2V1.932c0-2.574-4-2.578-4,0V217.309l2-2q-5.889,0-11.78-.011l-26.665-.031-38.077-.046-46.019-.056-50.489-.062-51.291-.062-49.029-.058-43.1-.049L25.622,214.9q-10.383-.009-20.767-.016H2.088l2,2q0-12.086,0-24.172l-.006-46.9q-.006-28.122-.014-56.243-.009-25.5-.024-51Q4.031,22.6,4.006,6.624L4,4.686c-.009-2.573-4.009-2.578-4,0Z"/>
<path class="i" d="M27.447,14.306c0,12.76.264,25.521.389,38.28.029,3.043.055,6.085.056,9.127,0,2.574,4,2.578,4,0,0-12.608-.269-25.216-.389-37.823-.03-3.195-.055-6.39-.056-9.584,0-2.574-4-2.578-4,0Z"/>
<path class="i" d="M348.336,14.306c0,12.76-.264,25.521-.388,38.28-.03,3.043-.056,6.085-.056,9.127,0,2.574,4,2.578,4,0,0-12.608.268-25.216.388-37.823.03-3.195.055-6.39.056-9.584,0-2.574-4-2.578-4,0Z"/>
<path class="i" d="M327,14.306c-.008,7.952-.437,15.9-.445,23.851,0,2.574,4,2.578,4,0,.008-7.952.437-15.9.445-23.851,0-2.574-4-2.578-4,0Z"/>
<path class="g" d="M152.7,96.256a72.13,72.13,0,0,1,3.668-6.365c.77-1.2,1.571-2.383,2.418-3.531.462-.627.631-.85,1.161-1.494q.656-.8,1.361-1.555a2,2,0,0,0-2.829-2.829,59.58,59.58,0,0,0-9.233,13.755,2.049,2.049,0,0,0,.718,2.736,2.018,2.018,0,0,0,2.736-.717Z"/>
<path class="g" d="M99.363,83.911q.684.739,1.321,1.521c.2.25.405.5.6.756a1.589,1.589,0,0,1,.169.221c.1.134.2.266.3.4.864,1.16,1.686,2.35,2.483,3.556,1.3,1.967,2.533,3.979,3.73,6.011a2,2,0,0,0,3.454-2.019,76.521,76.521,0,0,0-9.232-13.275,2,2,0,0,0-2.829,2.829Z"/>
<path class="a" d="M130.119,93.035a142.8,142.8,0,0,0-17.074,1.62c-.9.131-3.118.326-3.7.985-1.088,1.227-.675,3.844-.816,5.331a38.021,38.021,0,0,0,.212,7.135c.326,3.135.484,6.476,2.633,8.922,3.973,4.521,13.18,6.928,19.228,6.928a36.58,36.58,0,0,0,11.835-2.143c3.3-1.182,6.382-3.166,8.109-6.018,1.627-2.69,1.563-5.386,1.913-8.45a31.742,31.742,0,0,0,.125-6.49c-.149-1.483.23-3.906-.872-5.147-.584-.659-2.414-.923-3.313-1.043A160.35,160.35,0,0,0,130.119,93.035Z"/>
<path class="g" d="M130.119,91.035A111.054,111.054,0,0,0,116.362,92.2a57.05,57.05,0,0,0-6.131.889c-2.319.555-3.345,2.178-3.6,4.466a48.377,48.377,0,0,0-.188,6.46,67.8,67.8,0,0,0,.66,7.392,13.219,13.219,0,0,0,2.594,6.726,15.873,15.873,0,0,0,4.64,3.7c8.047,4.485,17.88,5.128,26.626,2.564,4.52-1.326,9.178-3.672,11.526-7.972a18.5,18.5,0,0,0,1.8-7.361,46.1,46.1,0,0,0,.33-7.807c-.177-2.317.25-5.112-1.493-6.958-1.547-1.638-4.569-1.615-6.634-1.879a133.42,133.42,0,0,0-16.371-1.38c-2.574-.009-2.578,3.991,0,4a114.768,114.768,0,0,1,12.493.91c1.923.219,3.856.426,5.769.721a12.765,12.765,0,0,1,1.258.247c.13.034.827.331.6.137s.067.093.1.247.085.307.112.464a9.421,9.421,0,0,1,.078,1.493c.051,4.18.26,8.383-.595,12.519-.825,3.993-3.991,6.577-7.672,7.977a31.974,31.974,0,0,1-23.225-.1c-2.955-1.158-6.392-3.011-7.435-6.225a28.248,28.248,0,0,1-.945-6.064,41.74,41.74,0,0,1-.127-6.519c.053-.877-.014-1.757.043-2.634a2.6,2.6,0,0,1,.173-1.071c.049-.069-.114.02.24-.115a12.111,12.111,0,0,1,2.585-.438c.993-.139,1.986-.282,2.981-.41a110.217,110.217,0,0,1,13.561-1.139C132.692,95.025,132.7,91.025,130.119,91.035Z"/>
<path class="g" d="M115.406,85.861c-.467,1.518-.163,5.011,2.714,5.308,3.8-.023,4-4.245,2.724-6.231C119.8,83.313,116.715,82.637,115.406,85.861Z"/>
<path class="g" d="M145.849,85.861c.467,1.518.163,5.011-2.713,5.308-3.8-.023-4-4.245-2.725-6.231C141.459,83.313,144.54,82.637,145.849,85.861Z"/>
</g>
</svg>